<svg xmlns="http://www.w3.org/2000/svg" viewBox="0 0 198.26 168.14"><defs><style>.cls-1,.cls-4{fill:#ff7827;}.cls-1,.cls-10,.cls-11,.cls-2,.cls-3,.cls-4,.cls-5,.cls-6,.cls-7,.cls-8,.cls-9{fill-rule:evenodd;}.cls-2{fill:#ff7c1b;}.cls-12,.cls-3{fill:#03afee;stroke-width:0.5px;}.cls-12,.cls-3,.cls-4{stroke:#fff;stroke-miterlimit:10;}.cls-5{fill:#7d4f3f;}.cls-6{fill:#af754b;}.cls-7{fill:#2f2653;}.cls-8{fill:#a64856;}.cls-9{fill:#6b433e;}.cls-10,.cls-13{fill:#fff;}.cls-11{fill:#cb8f6c;}.cls-12{font-size:35px;font-family:PassionOne-Regular, Passion One;}</style></defs><g id="Capa_2" data-name="Capa 2"><g id="Element3"><path class="cls-1" d="M162.84,143a1.44,1.44,0,1,1-2.36-1.65,74.71,74.71,0,1,0-122.81-.16,1.44,1.44,0,0,1-2.37,1.63,77.59,77.59,0,1,1,127.54.18Z"/><path class="cls-2" d="M99.13,29.8A67.93,67.93,0,0,0,53.87,148.38h90.52A67.93,67.93,0,0,0,99.13,29.8Z"/><path class="cls-3" d="M89.79,115.47c-18.71,21.09-64.34,9.87-70.45-19A38.18,38.18,0,0,0,24,98.26c-3.48-8.71-4.26-17.6-1-24.4l6.09,9.4c-6.87-22,12-36,11.93-35.66a32.08,32.08,0,0,0-.31,9.34C42.94,84.21,49.25,122.34,89.79,115.47Z"/><path class="cls-4" d="M187.53,133.41l9.9-18.56H.83l9.91,18.56L.83,154.59H65.41A14.21,14.21,0,0,0,64,159.34c-.54,3.7-1.75,8.35,7.56,8.3l60.12-.31c5,0,6.68-4.53,7-8.86a13.56,13.56,0,0,0-.06-3.88h58.8Z"/><path class="cls-5" d="M99.13,50.33c-18.64,0-33.81,28.71-34.34,64.52h68.68C132.94,79,117.77,50.33,99.13,50.33Z"/><path class="cls-6" d="M58.85,97.22c-.27,9.51-1.38,24.84,14.53,24.37,12-.36,9.16-18.61,9.59-25.32C83,91,80.89,85.58,73.24,84.93,61.11,83.92,59,91.23,58.85,97.22Z"/><path class="cls-7" d="M73.3,116.51a.92.92,0,0,1,1.78,0L75,121.41a10.42,10.42,0,0,1-1.64.18h-.14Z"/><path class="cls-7" d="M66.68,116.75a.92.92,0,0,1,1.78,0l0,4.38a13.77,13.77,0,0,1-1.78-.57Z"/><path class="cls-7" d="M99.42,88.25A24.43,24.43,0,1,0,75,63.82,24.47,24.47,0,0,0,99.42,88.25Z"/><path class="cls-6" d="M68.54,26.26l3.55,33.31S83,73.47,89.73,77.4c5.81,3.37,9.31,3.17,10.18,3,.88.08,4.39.08,10-3.62C116.44,72.5,126.48,58,126.48,58l1.62-33.45C129.71-8.85,64.88-8.06,68.54,26.26Z"/><path class="cls-8" d="M89.46,57.71h19V76.4A9.53,9.53,0,0,1,99,85.9h0a9.53,9.53,0,0,1-9.5-9.5Z"/><path class="cls-5" d="M70.52,13.82C68.07,9.09,64.86,13,59.22,21S38.3,41.93,47,52.34s7,18.25,7.6,25.28,13.73,2.44,17.11-7.92S70.52,13.82,70.52,13.82Z"/><path class="cls-5" d="M126.29,13.82c2.45-4.73,5.65-.84,11.3,7.2s20.92,20.91,12.2,31.32-7,18.25-7.61,25.28-13.72,2.44-17.1-7.92S126.29,13.82,126.29,13.82Z"/><path class="cls-9" d="M66.76,68C64.2,75.85,59.25,78.32,55,79.14c2.33,4.7,13.61.06,16.71-9.44a38.4,38.4,0,0,0,1.15-9.15c.61-16-2.06-43.71-2.34-46.5,0-.15,0-.23,0-.23C69.47,11.79,70.05,57.91,66.76,68Z"/><path class="cls-9" d="M130,68c2.56,7.86,7.52,10.33,11.75,11.15-2.33,4.7-13.61.06-16.71-9.44a38.4,38.4,0,0,1-1.15-9.15c-.62-16,2.06-43.71,2.33-46.5l0-.23C127.51,11.46,126.92,58.41,130,68Z"/><path class="cls-7" d="M97.78,68.63a1.08,1.08,0,0,1,2.16,0V79.81a1.08,1.08,0,1,1-2.16,0Z"/><path class="cls-5" d="M79.44,62.51c.34,6.13,6.45,10.08,12.17,8.94C98.76,70,99,67.77,99,67.77s.2,2.25,7.35,3.68c5.76,1.15,11.91-2.86,12.17-9.05s-6.75-7.86-6.75-12.39c0-25.11-25.54-25.11-25.54,0C86.19,54.62,79.11,56.4,79.44,62.51Z"/><path class="cls-7" d="M83.64,31a4,4,0,1,1-4,4A4,4,0,0,1,83.64,31Z"/><path class="cls-7" d="M114.28,31a4,4,0,1,1-4,4A4,4,0,0,1,114.28,31Z"/><path class="cls-7" d="M108,53.37c0,11.76-18.12,11.76-18.12,0C89.9,47.14,108,47.14,108,53.37Z"/><path class="cls-10" d="M99,49.93c2.2,0,4,.65,4,1.45s-1.78,1.45-4,1.45-4-.65-4-1.45S96.76,49.93,99,49.93Z"/><path class="cls-11" d="M88.83,20.83c3.06,4.8-6.91,7-8.11,5.17S85.77,16,88.83,20.83Z"/><path class="cls-11" d="M109.3,21.54c-2.16,5.27,8,5.71,8.89,3.66S111.47,16.27,109.3,21.54Z"/><path class="cls-7" d="M97.86,58.71a.87.87,0,1,1,1.74,0v.61c0,2.18.11,8.68-.43,9.62a6.32,6.32,0,0,1-3.11,2.37,9.55,9.55,0,0,1-3.55.67,7.52,7.52,0,0,1-3.75-1,7.36,7.36,0,0,1-3.17-3.83A.88.88,0,0,1,86.07,66a.87.87,0,0,1,1.13.49,5.74,5.74,0,0,0,2.42,3,5.88,5.88,0,0,0,2.9.74,7.73,7.73,0,0,0,2.91-.56,4.57,4.57,0,0,0,2.24-1.61c.3-.53.23-6.66.2-8.72C97.86,58.87,97.86,58.86,97.86,58.71Z"/><path class="cls-7" d="M97.92,58.71a.87.87,0,1,1,1.74,0c0,.15,0,.16,0,.63,0,2.06-.1,8.19.2,8.72a4.57,4.57,0,0,0,2.24,1.61,7.73,7.73,0,0,0,2.91.56,5.88,5.88,0,0,0,2.9-.74,5.74,5.74,0,0,0,2.42-3,.87.87,0,0,1,1.13-.49.88.88,0,0,1,.48,1.14A7.36,7.36,0,0,1,108.76,71,7.52,7.52,0,0,1,105,72a9.55,9.55,0,0,1-3.55-.67,6.32,6.32,0,0,1-3.11-2.37c-.54-.94-.46-7.44-.43-9.62Z"/><path class="cls-10" d="M116,33.56a1.16,1.16,0,1,0-1.15-1.16A1.15,1.15,0,0,0,116,33.56Z"/><path class="cls-10" d="M85.51,33.56a1.16,1.16,0,1,0-1.15-1.16A1.16,1.16,0,0,0,85.51,33.56Z"/><path class="cls-10" d="M113.56,77.37a1.56,1.56,0,1,0,1.56,1.56A1.56,1.56,0,0,0,113.56,77.37Z"/><path class="cls-10" d="M119.92,69.93a1.56,1.56,0,1,0,1.56,1.56A1.56,1.56,0,0,0,119.92,69.93Z"/><path class="cls-10" d="M85.24,77.37a1.56,1.56,0,1,1-1.56,1.56A1.56,1.56,0,0,1,85.24,77.37Z"/><path class="cls-10" d="M78.88,69.93a1.56,1.56,0,1,1-1.56,1.56A1.56,1.56,0,0,1,78.88,69.93Z"/><path class="cls-11" d="M83.91,114.85h30.44c-.2-2.88-.43-6.06-.68-9.1-.62-7.46-4.06-14.3-14.57-14.38-9.19-.07-13.3,6.46-14.23,15.08C84.59,109.1,84.2,111.94,83.91,114.85Z"/><path class="cls-6" d="M140.13,97.22c.27,9.51,1.39,24.84-14.53,24.37-12-.36-9.16-18.61-9.59-25.32-.06-5.32,2.08-10.69,9.73-11.34C137.87,83.92,140,91.23,140.13,97.22Z"/><path class="cls-7" d="M125.68,116.51a.92.92,0,0,0-1.78,0l.06,4.89a10.42,10.42,0,0,0,1.64.18h.14Z"/><path class="cls-7" d="M132.31,116.75a.83.83,0,0,0-.9-.7.82.82,0,0,0-.89.7l0,4.38a14.13,14.13,0,0,0,1.77-.57Z"/><polygon class="cls-3" points="167.36 62.38 144.23 103.03 183.26 74.85 167.36 62.38"/><polygon class="cls-3" points="170.78 93.85 151.32 107.42 176.48 106.8 170.78 93.85"/><text class="cls-12" transform="translate(16.15 144.62)">Arys Animals</text><path class="cls-13" d="M77.84,162.68c-.3,0-.63,0-1-.05a5.34,5.34,0,0,1-1.07-.22,2.34,2.34,0,0,1-.85-.43.91.91,0,0,1-.34-.74.84.84,0,0,1,.3-.7,1.57,1.57,0,0,1,1-.23,5.28,5.28,0,0,1,1,.12,5.59,5.59,0,0,0,1.12.13,2.21,2.21,0,0,0,1.17-.25.79.79,0,0,0,.23-1.14,1.41,1.41,0,0,0-.56-.41,8.12,8.12,0,0,0-1.28-.45,7.54,7.54,0,0,1-1.58-.59,2.14,2.14,0,0,1-.87-.77,2,2,0,0,1-.28-1.07,2.86,2.86,0,0,1,1-2.26,3.87,3.87,0,0,1,1-.62,5.39,5.39,0,0,1,1.15-.34,5.52,5.52,0,0,1,1.12-.11,4.29,4.29,0,0,1,1.92.37,1.1,1.1,0,0,1,.75,1,1,1,0,0,1-.28.72,1.2,1.2,0,0,1-.86.27,2.82,2.82,0,0,1-.59-.07l-.75-.13a5.17,5.17,0,0,0-.91-.07,2.59,2.59,0,0,0-1.29.26.88.88,0,0,0-.45.83.82.82,0,0,0,.13.46,1.43,1.43,0,0,0,.56.42,8.34,8.34,0,0,0,1.3.51,7.15,7.15,0,0,1,1.7.72,2.54,2.54,0,0,1,.88.88,2.4,2.4,0,0,1,.26,1.12,2.54,2.54,0,0,1-.46,1.5,3,3,0,0,1-1.28,1A4.81,4.81,0,0,1,77.84,162.68Z"/><path class="cls-13" d="M86.8,162.75a5.52,5.52,0,0,1-2.43-.45,2.71,2.71,0,0,1-1.3-1.31,4.64,4.64,0,0,1-.4-2,5.4,5.4,0,0,1,.56-2.55,3.9,3.9,0,0,1,1.53-1.61,4.37,4.37,0,0,1,2.23-.56,2.91,2.91,0,0,1,2.15.68,2.37,2.37,0,0,1,.69,1.77,2.51,2.51,0,0,1-.46,1.52,3,3,0,0,1-1.27,1,4.71,4.71,0,0,1-1.86.34,4.3,4.3,0,0,1-1.14-.15,4,4,0,0,1-1-.41l.33-.6a4.63,4.63,0,0,0,0,.65,1.57,1.57,0,0,0,.6,1.38,3,3,0,0,0,1.72.42,5.12,5.12,0,0,0,1.38-.15,8.07,8.07,0,0,0,.88-.3,2,2,0,0,1,.7-.14.62.62,0,0,1,.35.1.86.86,0,0,1,.26.3,1,1,0,0,1,.1.46,1,1,0,0,1-.41.79,3.11,3.11,0,0,1-1.21.62A7,7,0,0,1,86.8,162.75Zm-.8-4.48a2.67,2.67,0,0,0,1.57-.42,1.21,1.21,0,0,0,.59-1,1.07,1.07,0,0,0-.32-.79,1.47,1.47,0,0,0-1-.31,2.7,2.7,0,0,0-1.16.24,2,2,0,0,0-.8.63,1.29,1.29,0,0,0-.29.83.65.65,0,0,0,.38.61A2.14,2.14,0,0,0,86,158.27Z"/><path class="cls-13" d="M91.6,156.46a5.1,5.1,0,0,1,.25-1.9c.16-.39.39-.59.7-.59a.66.66,0,0,1,.56.3,1.89,1.89,0,0,1,.3.72,4.32,4.32,0,0,1,.1.88l-.07,0a3.23,3.23,0,0,1,.72-1.28,1.53,1.53,0,0,1,1.17-.53,1.27,1.27,0,0,1,1.19.66,3.26,3.26,0,0,1,.39,1.66,3.79,3.79,0,0,1-.31,1.83.9.9,0,0,1-.8.52.59.59,0,0,1-.55-.3,2.06,2.06,0,0,1-.11-1.07,2.57,2.57,0,0,0-.1-1.12.5.5,0,0,0-.48-.32.76.76,0,0,0-.65.5,2.73,2.73,0,0,0-.25,1.23,5.59,5.59,0,0,0,.06.73c0,.29.1.61.16,1l.15,1a8.18,8.18,0,0,1,.07.94,1.87,1.87,0,0,1-.24,1.08.75.75,0,0,1-.66.33.91.91,0,0,1-.74-.31,2.3,2.3,0,0,1-.39-1c-.08-.42-.15-.92-.22-1.49s-.14-1.17-.18-1.77S91.6,156.94,91.6,156.46Z"/><path class="cls-13" d="M98.53,154a.87.87,0,0,1,.79.42,4,4,0,0,1,.44,1.26q.15.72.42,1.68t.63,1.95q.34,1,.72,1.92h0c.22-.57.43-1.17.61-1.81s.35-1.27.48-1.88a12.08,12.08,0,0,0,.27-1.66,3.65,3.65,0,0,1,.29-1.27.7.7,0,0,1,.66-.37.88.88,0,0,1,.75.38,2.09,2.09,0,0,1,.28,1.19,7.62,7.62,0,0,1-.15,1.46,11.65,11.65,0,0,1-.38,1.52,12,12,0,0,1-.54,1.4,12.51,12.51,0,0,1-.72,1.34,3.09,3.09,0,0,1-.78.88,1.74,1.74,0,0,1-1,.32,1.55,1.55,0,0,1-1.13-.47,7.08,7.08,0,0,1-1-1.47,12.51,12.51,0,0,1-.8-1.79,14.16,14.16,0,0,1-.52-1.83,8.52,8.52,0,0,1-.19-1.64,2.29,2.29,0,0,1,.22-1.15A.72.72,0,0,1,98.53,154Z"/><path class="cls-13" d="M107.38,155.18c.3,0,.53.27.7.82a9.72,9.72,0,0,1,.25,2.62,11.44,11.44,0,0,1-.31,3.18c-.21.65-.54,1-1,1s-.58-.24-.73-.72a9.13,9.13,0,0,1-.23-2.52,11,11,0,0,1,.36-3.28C106.7,155.54,107,155.18,107.38,155.18Zm-.08-3.06a1,1,0,0,1,.79.3,1.1,1.1,0,0,1,.24.7,1,1,0,0,1-.29.76,1.2,1.2,0,0,1-.83.27,1,1,0,0,1-.79-.29,1,1,0,0,1-.26-.7,1,1,0,0,1,.32-.78A1.26,1.26,0,0,1,107.3,152.12Z"/><path class="cls-13" d="M113.38,162.79a3.55,3.55,0,0,1-2.78-1,3.94,3.94,0,0,1-.88-2.74,5.34,5.34,0,0,1,.52-2.41,4,4,0,0,1,1.53-1.64,4.5,4.5,0,0,1,2.38-.6,3.65,3.65,0,0,1,1.9.41,1.19,1.19,0,0,1,.65,1,.79.79,0,0,1-.24.61,1,1,0,0,1-.71.23,2,2,0,0,1-.53-.08l-.58-.17a3.25,3.25,0,0,0-.75-.08,2.25,2.25,0,0,0-1.71.6,2.47,2.47,0,0,0-.57,1.74,2,2,0,0,0,.55,1.57,2.13,2.13,0,0,0,1.49.49,2.92,2.92,0,0,0,.82-.1l.66-.21a1.87,1.87,0,0,1,.62-.1.71.71,0,0,1,.73.77,1.22,1.22,0,0,1-.35.81,2.43,2.43,0,0,1-1,.62A5.34,5.34,0,0,1,113.38,162.79Z"/><path class="cls-13" d="M121.44,162.75a5.55,5.55,0,0,1-2.43-.45,2.75,2.75,0,0,1-1.3-1.31,4.79,4.79,0,0,1-.4-2,5.4,5.4,0,0,1,.56-2.55,3.9,3.9,0,0,1,1.53-1.61,4.37,4.37,0,0,1,2.23-.56,3,3,0,0,1,2.16.68,2.4,2.4,0,0,1,.68,1.77,2.51,2.51,0,0,1-.46,1.52,2.94,2.94,0,0,1-1.27,1,4.71,4.71,0,0,1-1.86.34,4.25,4.25,0,0,1-2.13-.56l.33-.6c0,.21,0,.43,0,.65a1.57,1.57,0,0,0,.6,1.38,3,3,0,0,0,1.72.42,5.12,5.12,0,0,0,1.38-.15,8.07,8.07,0,0,0,.88-.3,2,2,0,0,1,.7-.14.6.6,0,0,1,.35.1.77.77,0,0,1,.26.3,1,1,0,0,1,.1.46,1,1,0,0,1-.41.79,3.11,3.11,0,0,1-1.21.62A7,7,0,0,1,121.44,162.75Zm-.79-4.48a2.62,2.62,0,0,0,1.56-.42,1.21,1.21,0,0,0,.59-1,1.07,1.07,0,0,0-.32-.79,1.45,1.45,0,0,0-1-.31,2.7,2.7,0,0,0-1.16.24,2,2,0,0,0-.8.63,1.35,1.35,0,0,0-.29.83.67.67,0,0,0,.38.61A2.16,2.16,0,0,0,120.65,158.27Z"/></g></g></svg>