<svg xmlns="http://www.w3.org/2000/svg" viewBox="0 0 224.27 155.4"><defs><style>.cls-1,.cls-3{fill:#03afee;}.cls-11,.cls-2{fill:#ff7827;stroke:#fff;stroke-miterlimit:10;}.cls-10,.cls-2,.cls-3,.cls-4,.cls-5,.cls-6,.cls-7,.cls-8,.cls-9{fill-rule:evenodd;}.cls-12,.cls-4{fill:#fff;}.cls-5{fill:#cc8b56;}.cls-6{fill:#2f2653;}.cls-7{fill:#e5b993;}.cls-8{fill:#48456d;}.cls-9{fill:#a64856;}.cls-10{fill:#91909d;}.cls-11{font-size:40.57px;font-family:PassionOne-Regular, Passion One;}</style></defs><g id="Capa_2" data-name="Capa 2"><g id="element2"><ellipse class="cls-1" cx="118.63" cy="87.27" rx="88.54" ry="53.45"/><path class="cls-2" d="M61,134.9c39.85,18.81,85.89,15.5,124.48-4.37l4.92-2.55C160,157.74,95.45,161.8,55.12,145.18Z"/><path class="cls-3" d="M87,30.05c23.26-3.61,33.5-2.35,55.91.84-17.13-8.2-37.84-9.15-57.13-7.33Z"/><path class="cls-2" d="M35.62,143.05c3.44-1.64,4.59-.86,6,0,10.61,6.52,8-4.72,3.54-9-2.63-2.53-6.53-4-10.37-2C27.15,135.81,24.84,148.21,35.62,143.05Z"/><path class="cls-2" d="M39.63,120.93c1.85.12,3.25,1.64,3.09,4.12s-1.82,5-3.66,4.88-3.17-2.82-3-5.3S37.79,120.81,39.63,120.93Z"/><path class="cls-2" d="M27.9,123.81c1.71-.54,3.75.36,4.91,2.69s1,5.21-.72,5.75-4.3-1.47-5.45-3.8S26.2,124.35,27.9,123.81Z"/><path class="cls-2" d="M49.72,124.39c1.72.58,2.49,2.37,1.4,4.67s-3.64,4.25-5.36,3.67-2-3.46-.87-5.77S48,123.81,49.72,124.39Z"/><path class="cls-4" d="M206.36,80c-17.44,6-45.1-.91-57-15.06l4.35,2.44c12.61,7.15,35.28,7.46,49.81,4.71A36.41,36.41,0,0,1,206.36,80Z"/><path class="cls-5" d="M194.24,23.71a93.22,93.22,0,0,1,26.5-8.18c12.66-1.94-12.6,33.33-14.73,36.08C206,51.61,191,27.9,194.24,23.71Z"/><path class="cls-6" d="M221.05,23,203.18,50.12s-3.25-5.92-5.94-12.22c-1-3.21-1.29-5.9-.36-7.1A93.89,93.89,0,0,1,221.05,23Z"/><path class="cls-5" d="M202.08,27.68c12.58-.76,7.47,1.23,1,5.13Z"/><path class="cls-5" d="M175.29,19.48A93.46,93.46,0,0,0,154.78.8c-10.63-7.13-2.77,35.53-2,38.92C152.77,39.72,176.45,24.66,175.29,19.48Z"/><path class="cls-6" d="M151.31,7.46,156,39.58s5.46-4,10.58-8.53c2.23-2.5,3.67-4.79,3.34-6.28A93.38,93.38,0,0,0,151.31,7.46Z"/><path class="cls-5" d="M166.5,19.74c-11.06-6-7.28-2.06-3.11,4.21Z"/><path class="cls-5" d="M186.12,16c16,3.56,26.6,20.08,29,35.27,1.36,8.75-2.41,15.77-8.87,20.53-14.9,11-53,2.87-62-13.74-3.77-7-4.21-15,.52-22.48C153.5,22.9,170.16,12.48,186.12,16Z"/><path class="cls-7" d="M214.81,59.76c-5.44.57-9.62.07-9.88-1.33s4.27-3.65,10.45-4.9A20.18,20.18,0,0,1,214.81,59.76Z"/><path class="cls-7" d="M214.85,49.67c-5.48,2.21-10.09,2.93-10.74,1.56s3.32-4.75,9.14-7.58A47.84,47.84,0,0,1,214.85,49.67Z"/><path class="cls-7" d="M143.74,37.56c5,3.75,8.24,7.57,7.32,8.84s-4.73-.13-9.35-2.89A21.62,21.62,0,0,1,143.74,37.56Z"/><path class="cls-7" d="M149.81,29.49c4.07,5,6.31,9.73,5.06,10.75s-5-1.65-9.07-6A51.15,51.15,0,0,1,149.81,29.49Z"/><path class="cls-7" d="M210.37,68.1c-4.09-.87-6.83-2.15-6.74-3.35.12-1.46,4.48-2.31,10.21-2.12A20.69,20.69,0,0,1,210.37,68.1Z"/><path class="cls-7" d="M141.4,46.47c5.26,2.26,8.83,4.88,8.32,6.25-.42,1.12-3.45,1.11-7.52.16A21.44,21.44,0,0,1,141.4,46.47Z"/><path class="cls-7" d="M186.12,16a29.62,29.62,0,0,1,3,.83l0,.13c-1.52,6.8-4.09,12-5.76,11.64s-1.77-6.19-.26-13l0-.13A27,27,0,0,1,186.12,16Z"/><path class="cls-7" d="M172.88,16.05a33.74,33.74,0,0,1,6.09-.71c.08,6.27-1,11.17-2.59,11.24S173.37,22.08,172.88,16.05Z"/><path class="cls-7" d="M192.88,18.45a32.53,32.53,0,0,1,5.21,3.23c-3,5.25-6.27,8.75-7.64,8S190.15,24.08,192.88,18.45Z"/><path class="cls-7" d="M174.15,27.13c.12,5.07-8.51,2.19-8.56.21S174,22.06,174.15,27.13Z"/><path class="cls-7" d="M191.8,31c-2,4.64,7,5.24,7.84,3.42S193.83,26.34,191.8,31Z"/><path class="cls-6" d="M167.9,32.08a3.59,3.59,0,1,1-4.29,2.72A3.58,3.58,0,0,1,167.9,32.08Z"/><path class="cls-6" d="M195.78,38.3A3.59,3.59,0,1,1,191.5,41,3.59,3.59,0,0,1,195.78,38.3Z"/><path class="cls-4" d="M184.34,63.33c-1.73,7.75-18.15,4.09-16.41-3.67C168.84,55.56,185.25,59.23,184.34,63.33Z"/><path class="cls-4" d="M186,44.67c10.89,2.43,7.19,19-3.69,16.55a8.4,8.4,0,0,1-5.17-3.52,8.45,8.45,0,0,1-6.18,1c-10.89-2.43-7.19-19,3.69-16.55a8.42,8.42,0,0,1,5.17,3.52A8.44,8.44,0,0,1,186,44.67Z"/><path class="cls-6" d="M186.64,47.23c-2,9.06-16,6-13.95-3.12C173.76,39.32,187.71,42.44,186.64,47.23Z"/><path class="cls-4" d="M180.26,43c1.69.38,3,1.19,2.81,1.8s-1.62.82-3.31.44-3-1.19-2.82-1.8S178.56,42.64,180.26,43Z"/><path class="cls-6" d="M178,47.7a1,1,0,1,1,1.91.43l-.13.59c-.45,2.15-1.8,8.55-2.55,9.36a6.36,6.36,0,0,1-3.62,1.68,9.66,9.66,0,0,1-3.66-.12,7.65,7.65,0,0,1-3.51-1.79,7.56,7.56,0,0,1-2.3-4.5,1,1,0,0,1,.82-1.14,1,1,0,0,1,1.12.81,5.59,5.59,0,0,0,1.69,3.36,5.74,5.74,0,0,0,2.62,1.33,7.65,7.65,0,0,0,2.93.09,4.37,4.37,0,0,0,2.47-1.06c.39-.42,1.65-6.41,2.07-8.42Z"/><path class="cls-6" d="M178.07,47.71a1,1,0,1,1,1.92.43c-.05.21,0,.15-.15.62-.47,2-1.88,8-1.71,8.5a4.47,4.47,0,0,0,1.79,2,7.78,7.78,0,0,0,2.69,1.17,5.87,5.87,0,0,0,2.94-.09A5.6,5.6,0,0,0,188.5,58a1,1,0,1,1,1.62,1.12,7.57,7.57,0,0,1-4,3.1,7.76,7.76,0,0,1-3.94.13,9.76,9.76,0,0,1-3.37-1.45,6.4,6.4,0,0,1-2.56-3.06c-.33-1.06,1.17-7.42,1.67-9.55C178,48.18,178,48.12,178.07,47.71Z"/><path class="cls-6" d="M211.16,52.06a.35.35,0,0,1,.23.45.37.37,0,0,1-.46.23c-8.3-2.77-20.45-2.61-20.49-2.61a.36.36,0,0,1-.36-.36.34.34,0,0,1,.35-.36S202.74,49.25,211.16,52.06Z"/><path class="cls-6" d="M209.31,59.23a.36.36,0,1,1-.36.62c-7.59-4.49-19.53-6.91-19.57-6.92a.37.37,0,0,1-.28-.43.37.37,0,0,1,.43-.28S201.62,54.67,209.31,59.23Z"/><path class="cls-6" d="M205.93,64.56a.37.37,0,0,1-.48.55c-5.94-5.15-16-9.18-16-9.19a.36.36,0,0,1,.27-.67S199.89,59.33,205.93,64.56Z"/><path class="cls-6" d="M147.93,38.68a.35.35,0,0,1-.31-.4A.36.36,0,0,1,148,38c8.81,1,19.85,6.4,19.88,6.42a.35.35,0,0,1,.17.48.37.37,0,0,1-.48.17S156.63,39.7,147.93,38.68Z"/><path class="cls-6" d="M146.7,46a.36.36,0,1,1-.06-.72c8.89-.85,20.85,2.06,20.88,2.07a.35.35,0,0,1,.27.43.36.36,0,0,1-.44.27S155.48,45.12,146.7,46Z"/><path class="cls-6" d="M147.63,52.2a.37.37,0,0,1-.45-.25.36.36,0,0,1,.25-.44c7.69-2.17,18.63-1.53,18.66-1.53a.36.36,0,1,1,0,.72S155.2,50.07,147.63,52.2Z"/><path class="cls-4" d="M198,39.24a1.31,1.31,0,1,1-1.56,1A1.32,1.32,0,0,1,198,39.24Z"/><path class="cls-4" d="M169.89,32.67a1.31,1.31,0,1,1-1.56,1A1.32,1.32,0,0,1,169.89,32.67Z"/><path class="cls-4" d="M52.75,123c13.45-4.44,22.68-16.2,23.6-34.34-10.13,16.47-23.92,22-38,21.22A61.21,61.21,0,0,0,52.75,123Z"/><path class="cls-8" d="M30.3,45.26c-.4-2,.49-4.12-.7-6.7S6.2,17.27,2.13,17,.81,33.36,2.32,38.28a40.55,40.55,0,0,0,2.83,7.29S5.27,52.73,7,56.15s13.22,8.3,13.22,8.3Z"/><path class="cls-6" d="M0,22.31a66.79,66.79,0,0,0,2.32,16,40.55,40.55,0,0,0,2.83,7.29S5.27,52.73,7,56.15c1.13,2.29,6.65,5.22,10.19,6.92L24.6,49l-.06-.34c-2.85,1.11-7.63-3.45-7-5.06C18,42.36,21.71,42,24.17,43a4.92,4.92,0,0,0-.27-.69C22.91,40.13,7.6,27,0,22.31Z"/><path class="cls-8" d="M57,41.44c-.16-2-1.63-3.82-1.2-6.63S72.21,7.8,76,6.37s5.88,15.35,5.81,20.5a41.45,41.45,0,0,1-.66,7.8s1.89,6.9,1.22,10.66S72,57,72,57Z"/><path class="cls-6" d="M79.58,10.9a66.83,66.83,0,0,1,2.26,16,41.45,41.45,0,0,1-.66,7.8s1.89,6.9,1.22,10.66c-.45,2.51-4.92,6.88-7.84,9.51L63.46,43.38c0-.12,0-.23,0-.35,3,.27,6.35-5.45,5.29-6.82-.77-1-4.44-.35-6.53,1.28a6.58,6.58,0,0,1,.07-.74C62.6,34.43,73.6,17.52,79.58,10.9Z"/><path class="cls-8" d="M18.41,67.58l6.09,26.8c1.85,8.17,12.41,16.21,19.72,19.37,5.9,2.56,9.19,2,10,1.75.84,0,4.17-.41,9.08-4.55,5.78-4.88,13.9-15.82,13.34-23.82L74.74,59.3C72.55,27.44,11.11,35.42,18.41,67.58Z"/><path class="cls-5" d="M62.05,85.3c-2.8-23.82-27-21-24.23,2.85C39.3,100.75,63.53,97.91,62.05,85.3Z"/><path class="cls-9" d="M41.78,95.1,59.8,93l2.09,17.74a9.11,9.11,0,0,1-8,10.07h0a9.11,9.11,0,0,1-10.07-8Z"/><path class="cls-5" d="M32.81,100.77c1,5.78,7.23,8.85,12.53,7.12,6.63-2.15,6.57-4.3,6.57-4.3s.45,2.1,7.39,2.66c5.59.45,11-4,10.54-9.94C69.32,89.3,56,82.5,49.61,83.19S31.6,93.81,32.81,100.77Z"/><path class="cls-6" d="M33.27,70.36a3.8,3.8,0,1,1-3.34,4.22A3.79,3.79,0,0,1,33.27,70.36Z"/><path class="cls-6" d="M62.34,66.94A3.81,3.81,0,1,1,59,71.16,3.81,3.81,0,0,1,62.34,66.94Z"/><path class="cls-6" d="M58.9,88.9c1.31,11.17-15.88,13.19-17.19,2C41,85,58.21,83,58.9,88.9Z"/><path class="cls-4" d="M49.92,86.65c2.09-.25,3.86.17,3.94.93s-1.53,1.58-3.61,1.82-3.85-.17-3.94-.93S47.84,86.89,49.92,86.65Z"/><path class="cls-10" d="M37.06,60.17C40.5,64.38,31.29,67.62,30,66S33.62,56,37.06,60.17Z"/><path class="cls-10" d="M56.57,58.56C55.1,63.8,64.84,63.08,65.42,61S58,53.32,56.57,58.56Z"/><path class="cls-6" d="M49.86,95.11a.83.83,0,1,1,1.65-.2c0,.35.05.45.07.58.27,2.06,1.07,8.23.66,9.18a6,6,0,0,1-2.68,2.59,9.26,9.26,0,0,1-3.3,1,7.3,7.3,0,0,1-3.67-.5,7.07,7.07,0,0,1-3.43-3.29.84.84,0,0,1,.33-1.13.82.82,0,0,1,1.12.34,5.48,5.48,0,0,0,2.63,2.53,5.56,5.56,0,0,0,2.84.39,7.57,7.57,0,0,0,2.7-.86A4.37,4.37,0,0,0,50.72,104c.23-.53-.53-6.35-.78-8.3C49.88,95.26,49.88,95.27,49.86,95.11Z"/><path class="cls-6" d="M49.91,95.1a.84.84,0,0,1,.73-.93.83.83,0,0,1,.93.73c0,.18,0,.17.06.6.2,2,.81,7.79,1.16,8.26a4.38,4.38,0,0,0,2.3,1.28,7.6,7.6,0,0,0,2.83.2,5.21,5.21,0,0,0,4.63-4.1.83.83,0,0,1,1-.59.85.85,0,0,1,.59,1,6.86,6.86,0,0,1-6,5.32,9.18,9.18,0,0,1-3.45-.24,6.08,6.08,0,0,1-3.21-1.9c-.62-.83-1.26-7-1.48-9.08C50,95.54,50,95.46,49.91,95.1Z"/><path class="cls-4" d="M64.05,66.3a1.1,1.1,0,1,1-.95,1.24A1.1,1.1,0,0,1,64.05,66.3Z"/><path class="cls-4" d="M35,70.19a1.11,1.11,0,0,1,1.25,1,1.11,1.11,0,1,1-1.25-1Z"/><path class="cls-6" d="M51,105.19a1.08,1.08,0,0,1,2.15-.26l1.31,10.9a1.08,1.08,0,0,1-2.15.26Z"/><text class="cls-11" transform="translate(77.79 77.38)">Arys</text><text class="cls-11" transform="translate(78.53 110.39)">Animals</text><path class="cls-12" d="M88.07,125.6c-.33,0-.69,0-1.1-.06a5.56,5.56,0,0,1-1.16-.24,2.71,2.71,0,0,1-.93-.47,1,1,0,0,1-.36-.8.92.92,0,0,1,.32-.76,1.69,1.69,0,0,1,1-.25,5.46,5.46,0,0,1,1.14.13,5.83,5.83,0,0,0,1.22.13,2.46,2.46,0,0,0,1.27-.26.83.83,0,0,0,.41-.74.89.89,0,0,0-.15-.5,1.74,1.74,0,0,0-.62-.45,9.47,9.47,0,0,0-1.39-.49,7.62,7.62,0,0,1-1.71-.64,2.36,2.36,0,0,1-1-.84,2.18,2.18,0,0,1-.3-1.16,3.06,3.06,0,0,1,1.08-2.46,3.73,3.73,0,0,1,1.1-.67,6.21,6.21,0,0,1,1.25-.38,6.44,6.44,0,0,1,1.21-.12,4.73,4.73,0,0,1,2.1.41,1.19,1.19,0,0,1,.81,1.07,1,1,0,0,1-.31.78,1.31,1.31,0,0,1-.93.29,3.27,3.27,0,0,1-.64-.07l-.82-.15a6,6,0,0,0-1-.07,2.86,2.86,0,0,0-1.41.28,1,1,0,0,0-.49.91.93.93,0,0,0,.14.49,1.52,1.52,0,0,0,.61.46,9.45,9.45,0,0,0,1.41.55,7.3,7.3,0,0,1,1.85.79,2.59,2.59,0,0,1,1,1,2.54,2.54,0,0,1,.28,1.21,2.78,2.78,0,0,1-.5,1.63,3.21,3.21,0,0,1-1.39,1.1A5.08,5.08,0,0,1,88.07,125.6Z"/><path class="cls-12" d="M97.81,125.67a5.89,5.89,0,0,1-2.64-.49,3,3,0,0,1-1.42-1.42,5.16,5.16,0,0,1-.43-2.21,5.86,5.86,0,0,1,.6-2.76A4.3,4.3,0,0,1,95.59,117a4.87,4.87,0,0,1,2.43-.61,3.24,3.24,0,0,1,2.34.74,2.62,2.62,0,0,1,.74,1.93,2.69,2.69,0,0,1-.5,1.65,3.18,3.18,0,0,1-1.38,1.07,5.09,5.09,0,0,1-2,.37A4.63,4.63,0,0,1,96,122a4.38,4.38,0,0,1-1.08-.45l.36-.66a5.79,5.79,0,0,0,0,.72,1.73,1.73,0,0,0,.65,1.5,3.29,3.29,0,0,0,1.87.45,5.53,5.53,0,0,0,1.5-.16c.38-.11.7-.22,1-.32a1.92,1.92,0,0,1,.76-.16.7.7,0,0,1,.38.11.88.88,0,0,1,.28.32,1,1,0,0,1,.11.51,1.17,1.17,0,0,1-.44.86,3.53,3.53,0,0,1-1.32.67A7.73,7.73,0,0,1,97.81,125.67Zm-.87-4.88a3,3,0,0,0,1.7-.44,1.32,1.32,0,0,0,.64-1.11,1.12,1.12,0,0,0-.35-.86,1.54,1.54,0,0,0-1.09-.33,3,3,0,0,0-1.26.26,2.19,2.19,0,0,0-.88.68,1.54,1.54,0,0,0-.31.91.72.72,0,0,0,.41.66A2.28,2.28,0,0,0,96.94,120.79Z"/><path class="cls-12" d="M103,118.82a6,6,0,0,1,.26-2.06c.18-.42.44-.64.77-.64a.71.71,0,0,1,.61.33,2.12,2.12,0,0,1,.33.79,4.92,4.92,0,0,1,.1.94l-.07,0a3.55,3.55,0,0,1,.78-1.38,1.66,1.66,0,0,1,1.27-.59,1.41,1.41,0,0,1,1.3.73,3.51,3.51,0,0,1,.42,1.79,4.26,4.26,0,0,1-.33,2,1,1,0,0,1-.88.57.63.63,0,0,1-.59-.33,2.36,2.36,0,0,1-.13-1.16,2.68,2.68,0,0,0-.1-1.22.55.55,0,0,0-.52-.35.81.81,0,0,0-.71.55,3,3,0,0,0-.28,1.33,5.38,5.38,0,0,0,.08.79c0,.32.1.67.16,1s.12.74.17,1.11a7.57,7.57,0,0,1,.07,1,2.09,2.09,0,0,1-.25,1.18.83.83,0,0,1-.72.36,1,1,0,0,1-.8-.34,2.38,2.38,0,0,1-.44-1.09c-.08-.46-.15-1-.24-1.63s-.14-1.26-.19-1.92S103,119.35,103,118.82Z"/><path class="cls-12" d="M110.56,116.17a.94.94,0,0,1,.86.45,4.26,4.26,0,0,1,.48,1.37c.11.53.26,1.14.46,1.83s.43,1.4.68,2.12.52,1.42.78,2.09h.06c.24-.62.46-1.27.67-2s.37-1.38.52-2a16.59,16.59,0,0,0,.29-1.8,3.91,3.91,0,0,1,.31-1.38.77.77,0,0,1,.72-.41,1,1,0,0,1,.82.42,2.25,2.25,0,0,1,.3,1.3,8.14,8.14,0,0,1-.16,1.58,11.73,11.73,0,0,1-.42,1.65,11.89,11.89,0,0,1-.59,1.53,12,12,0,0,1-.77,1.45,3.54,3.54,0,0,1-.86,1,1.86,1.86,0,0,1-1.14.34,1.64,1.64,0,0,1-1.22-.5,7.53,7.53,0,0,1-1.12-1.6,13.63,13.63,0,0,1-.87-2,13.35,13.35,0,0,1-.57-2,9.24,9.24,0,0,1-.2-1.79,2.65,2.65,0,0,1,.23-1.24A.79.79,0,0,1,110.56,116.17Z"/><path class="cls-12" d="M120.19,117.44c.32,0,.57.3.76.89a10.84,10.84,0,0,1,.27,2.85,12.33,12.33,0,0,1-.34,3.46c-.23.71-.58,1.06-1,1.06s-.62-.26-.79-.78a10.59,10.59,0,0,1-.25-2.74,11.71,11.71,0,0,1,.4-3.57C119.45,117.83,119.78,117.44,120.19,117.44Zm-.09-3.33a1,1,0,0,1,.86.33,1.21,1.21,0,0,1,.26.76,1.08,1.08,0,0,1-.32.83,1.3,1.3,0,0,1-.9.29,1.09,1.09,0,0,1-.85-.32,1.12,1.12,0,0,1-.28-.76,1,1,0,0,1,.34-.84A1.34,1.34,0,0,1,120.1,114.11Z"/><path class="cls-12" d="M126.71,125.71a3.85,3.85,0,0,1-3-1.07,4.32,4.32,0,0,1-1-3,5.77,5.77,0,0,1,.57-2.62,4.28,4.28,0,0,1,1.66-1.79,4.94,4.94,0,0,1,2.58-.65,4,4,0,0,1,2.07.44,1.32,1.32,0,0,1,.71,1.13.87.87,0,0,1-.26.66,1.07,1.07,0,0,1-.77.25,2,2,0,0,1-.58-.09l-.63-.18a3.26,3.26,0,0,0-.82-.09,2.45,2.45,0,0,0-1.86.66,2.64,2.64,0,0,0-.61,1.89,2.18,2.18,0,0,0,.59,1.71,2.39,2.39,0,0,0,1.63.53,3.25,3.25,0,0,0,.88-.11l.72-.23a2.25,2.25,0,0,1,.68-.11.77.77,0,0,1,.57.22.85.85,0,0,1,.22.62,1.27,1.27,0,0,1-.37.87,2.58,2.58,0,0,1-1.12.68A5.65,5.65,0,0,1,126.71,125.71Z"/><path class="cls-12" d="M135.48,125.67a5.89,5.89,0,0,1-2.64-.49,3,3,0,0,1-1.42-1.42,5.16,5.16,0,0,1-.43-2.21,5.86,5.86,0,0,1,.6-2.76,4.36,4.36,0,0,1,1.67-1.76,4.87,4.87,0,0,1,2.43-.61,3.24,3.24,0,0,1,2.34.74,2.58,2.58,0,0,1,.74,1.93,2.69,2.69,0,0,1-.5,1.65,3.18,3.18,0,0,1-1.38,1.07,5.09,5.09,0,0,1-2,.37,4.63,4.63,0,0,1-1.24-.16,4.38,4.38,0,0,1-1.08-.45l.36-.66a5.79,5.79,0,0,0,0,.72,1.73,1.73,0,0,0,.65,1.5,3.29,3.29,0,0,0,1.87.45,5.53,5.53,0,0,0,1.5-.16c.38-.11.7-.22,1-.32a1.92,1.92,0,0,1,.76-.16.7.7,0,0,1,.38.11.88.88,0,0,1,.28.32,1,1,0,0,1,.11.51,1.17,1.17,0,0,1-.44.86,3.53,3.53,0,0,1-1.32.67A7.73,7.73,0,0,1,135.48,125.67Zm-.87-4.88a3,3,0,0,0,1.7-.44,1.32,1.32,0,0,0,.64-1.11,1.12,1.12,0,0,0-.35-.86,1.54,1.54,0,0,0-1.09-.33,3,3,0,0,0-1.26.26,2.16,2.16,0,0,0-.87.68,1.48,1.48,0,0,0-.32.91.72.72,0,0,0,.41.66A2.31,2.31,0,0,0,134.61,120.79Z"/></g></g></svg>