<svg xmlns="http://www.w3.org/2000/svg" viewBox="0 0 270.61 265.48"><defs><style>.cls-1,.cls-22{fill:#ff7c1b;}.cls-1,.cls-10,.cls-11,.cls-12,.cls-13,.cls-14,.cls-15,.cls-16,.cls-17,.cls-18,.cls-19,.cls-20,.cls-3,.cls-4,.cls-5,.cls-6,.cls-7,.cls-8,.cls-9{fill-rule:evenodd;}.cls-2,.cls-20{fill:#03afee;}.cls-3{fill:#772828;}.cls-4{fill:#2f2653;}.cls-5{fill:#e1a588;}.cls-6{fill:#cb7d6b;}.cls-7{fill:#d8d8d8;}.cls-21,.cls-8{fill:#fff;}.cls-9{fill:#eaeaea;}.cls-10{fill:#7d4f3f;}.cls-11{fill:#af754b;}.cls-12{fill:#cb8f6c;}.cls-13{fill:#65342d;}.cls-14{fill:#1d113d;}.cls-15{fill:#904b49;}.cls-16{fill:#51100a;}.cls-17{fill:#a64856;}.cls-18{fill:#6b433e;}.cls-19{fill:none;}.cls-22{font-size:37.16px;stroke:#101610;stroke-miterlimit:10;font-family:PassionOne-Regular, Passion One;}</style></defs><g id="Capa_2" data-name="Capa 2"><g id="element1"><path class="cls-1" d="M43.73,105.29C44,124,49.67,139.85,58.8,152.37a80.2,80.2,0,0,0,40.27,28.8,77.17,77.17,0,0,0,23.16,3.63A86,86,0,0,0,167.89,172c13.44-8.39,24.16-20.71,29.2-36.33a66.16,66.16,0,0,0,3.13-19.87,41.27,41.27,0,0,0-2.67-15.36,31.16,31.16,0,0,0-7.85-11.66c-11.21-10.35-23.23-10.85-37.2-11.44-7.36-.31-15.25-.64-23.87-2.4-6.67-1.36-12.26-5.26-18-9.29-5.07-3.53-10.28-7.17-16.34-9.09a38.61,38.61,0,0,0-12.14-1.88,34.12,34.12,0,0,0-21.53,8c-6.16,5.08-11,12.43-13.91,21.53a67,67,0,0,0-3,21.08Zm12.81,48.8c-9.47-13-15.38-29.41-15.62-48.77a69.71,69.71,0,0,1,3.08-22c3.06-9.65,8.24-17.45,14.82-22.88a36.86,36.86,0,0,1,23.27-8.62,41.5,41.5,0,0,1,13,2c6.48,2.06,11.86,5.82,17.09,9.47,5.54,3.86,10.9,7.6,17,8.84,8.41,1.72,16.18,2,23.43,2.35,14.52.61,27,1.14,39,12.18a34.07,34.07,0,0,1,8.58,12.73A44.3,44.3,0,0,1,203,115.83a68.66,68.66,0,0,1-3.27,20.76c-5.25,16.3-16.42,29.14-30.4,37.88a88.74,88.74,0,0,1-47.13,13.2,80.13,80.13,0,0,1-24-3.76A83,83,0,0,1,56.54,154.09Z"/><circle class="cls-2" cx="121.77" cy="112.56" r="70.95" transform="translate(-29.33 44.24) rotate(-18.42)"/><path class="cls-3" d="M85.93,28.74c.32,11.44.63,32.42-15.26,44.5s-11.13,37.19,20,48.64c21.75,8,54.8,5.38,69.93-8.75,19-17.73,14-26.92,1.5-43.56-9.94-13.2-15-20.73-16.12-32.88-1.91-20.35-1.91-14.62-1.91-14.62Z"/><path class="cls-4" d="M160.26,90.6c.12-3-1.91-9.83-6.71-15.38-10.92-12.63-3.43-29-19.26-34.7-5-1.81-33.51-3.5-34.51,4.93S96.29,62.3,84,73.25c-7.87,7-13,16.18-9.33,25.12C82.4,117.05,159.25,115.13,160.26,90.6Z"/><path class="cls-5" d="M60.79,121.1c-6.28,13.24-5.37,27.53-1.54,35.9.94,2.06,18.58,7.8,23.61-2.92L77.7,132.23Z"/><path class="cls-6" d="M56.63,135.27c-.1.79-.18,1.58-.25,2.36l7.52,4.66,4.56-3.47Z"/><path class="cls-5" d="M175.21,116.34c8.85,12.48,15.94,24.52,18.68,32.85,1.7,5.18-4.24,9.53-6.55,11.05-6,4-16.43-10.33-16.43-10.33l-7.23-17.68Z"/><path class="cls-6" d="M185,131.21c.41.69.82,1.37,1.21,2l-6.35,5.93-5.16-2.52Z"/><path class="cls-7" d="M55.71,130.74l-.32,1.07c2.89,1.05,15.29,6.61,15.33,6.63a.56.56,0,0,0,.46-1S58.62,131.78,55.71,130.74Z"/><path class="cls-7" d="M187.53,128.36l-.57-1c-4.54,2.46-11.12,6.17-11.15,6.19a.56.56,0,1,0,.56,1S183,130.79,187.53,128.36Z"/><path class="cls-8" d="M100.33,87.39c-9.22-.3-19.44.65-26.51,7-11.52,10.33-19.47,41.13-19.47,41.13L80.64,145l5.48-13.22c7.78,21.34,2,27.44-6.34,51.78a130,130,0,0,0,38.49,5.55,130,130,0,0,0,38.49-5.55c-5.21-17.58-15.34-25.48-5.17-54.37L159.93,146l29.16-15s-14.85-26.34-26.38-36.67c-4.4-3.95-13.26-6.26-22.07-7C132.53,86.67,111.92,87.77,100.33,87.39Z"/><path class="cls-5" d="M133.07,87.54c0,7.34-7.16,13.29-16,13.29s-16-6-16-13.29v-.16q1.18,0,2.34,0l2.06,0c1.12-.39,1.1-1,1.1-1.65V66.57h21V85c0,2.38,1.12,2.12,3.38,2.11,1.3,0,1,0,2.08,0C133,87.24,133.07,87.44,133.07,87.54Z"/><path class="cls-9" d="M149.26,136.69c.61-2.35,1.38-4.85,2.33-7.54l4.64,9.39c4.14,1.05,8.49,2.1,12.41,3l7.83-4c-2.5-3.53-5-7.57-5.2-10A38.4,38.4,0,0,1,175,109c-1.56-2.19-3.17-4.35-4.8-6.38-10.21-1.34-29.45,1.72-32.52,6.92-4.27,7.26-.5,20.57.89,23.25C139,133.6,143.42,135.07,149.26,136.69Z"/><path class="cls-9" d="M77,143.63,80.64,145l5.48-13.22c5,13.8,4.41,21.23,1.07,31.34A86.54,86.54,0,0,0,106,150.74l3-2.68s6.26-.8,9.24-2,6.56,2.38,6.56,2.38l4.57-18.57s.59-7.16-.4-7.16-13.11,1.69-13.11,1.69.49,5.37-9.34,6.06c-6.36.45-19.43,2.22-20.46-6.35l-9.24,18.57Z"/><path class="cls-4" d="M106.59,66.57l21-4.84V79.34a37.34,37.34,0,0,1-10.49,4.24,30,30,0,0,1-10.49.6Z"/><path class="cls-7" d="M136.07,87.19v0h.75v.37a15.71,15.71,0,0,1-.22,2.56,15.22,15.22,0,0,1-.66,2.49,17.06,17.06,0,0,1-7.09,8.64,22.39,22.39,0,0,1-23.56,0,17.06,17.06,0,0,1-7.09-8.64,15.22,15.22,0,0,1-.66-2.49,15.71,15.71,0,0,1-.22-2.56v-.19h.75v.18a14.11,14.11,0,0,0,.84,4.8,16.37,16.37,0,0,0,6.78,8.26,21.66,21.66,0,0,0,22.76,0,16.37,16.37,0,0,0,6.78-8.26,14.11,14.11,0,0,0,.84-4.8v-.35Z"/><path class="cls-9" d="M86.8,131.47a.56.56,0,1,1-1.11.19c-.58-3.34-.19-7,.22-11a70.87,70.87,0,0,0,.57-10.84,33.92,33.92,0,0,0-2.54-10.76.56.56,0,0,1,1-.45,35.34,35.34,0,0,1,2.63,11.16,71.66,71.66,0,0,1-.57,11C86.62,124.72,86.25,128.28,86.8,131.47Z"/><path class="cls-9" d="M110.4,187.61c13.3-.19,35.69-.74,46.36-4.09-4.74-16-13.55-24-7.44-47-10.21-.73-15.73.09-31.21,8.42-3.92,9.45-8.33,32.83-7.71,42.71Zm45.3-50.14a28,28,0,0,1,10.82,5.18L159.93,146Z"/><path class="cls-10" d="M126.19,107.27c2.12,9.8-.31,16.52-4.56,29.12s-1.51,36.67-1.51,36.67-14.28-4.76-16.41,6.44,10.64,19.6,10.64,19.6-21.27,3.08-21.88,10.36,17.83,3.29,26.59,0,7.14-6.12,7.14-6.12h29.18s-1,2.8,9.92,6.72,24.42,6.72,23.81-.56-21.88-10.36-21.88-10.36,12.77-8.4,10.64-19.6-16.41-6.44-16.41-6.44S164.21,149,160,136.39s-6.68-19.32-4.55-29.12l-14.61-3.36Z"/><path class="cls-11" d="M120,145.45c.4,11.05,6.24,50.27,7.18,60.4a1.94,1.94,0,0,1-1.85,2.36c-2.35.34-5.65,1.24-6.69,3.61-1.92,4.36,11,2.59,13.07,2.37,1.92-.21,3.55-.49,3.71-2.48l2.73-63.11S127,128.74,120,145.45Z"/><path class="cls-11" d="M161.63,145.45c-.4,11.05-6.24,50.27-7.18,60.4a1.94,1.94,0,0,0,1.85,2.36c2.35.34,5.65,1.24,6.69,3.61,1.92,4.36-11,2.59-13.07,2.37-1.92-.21-3.56-.49-3.71-2.48l-2.73-63.11S154.55,128.74,161.63,145.45Z"/><path class="cls-10" d="M122.16,214.64a5.81,5.81,0,0,1,.43-.78,4.14,4.14,0,0,1,1.4-1.37.58.58,0,0,0,.23-.71.42.42,0,0,0-.6-.26,5,5,0,0,0-1.74,1.68,8.21,8.21,0,0,0-.69,1.32C121.5,214.57,121.82,214.61,122.16,214.64Z"/><path class="cls-10" d="M119.86,214.19a6.69,6.69,0,0,1,.69-1.42A4.16,4.16,0,0,1,122,211.4a.59.59,0,0,0,.22-.71.43.43,0,0,0-.6-.27,5.07,5.07,0,0,0-1.74,1.69,7.92,7.92,0,0,0-.81,1.65A3.07,3.07,0,0,0,119.86,214.19Z"/><path class="cls-10" d="M160,214.59a6.44,6.44,0,0,0-.36-.63,4.23,4.23,0,0,0-1.4-1.37.58.58,0,0,1-.23-.71.42.42,0,0,1,.6-.26,5,5,0,0,1,1.74,1.68,8.25,8.25,0,0,1,.58,1.06C160.6,214.45,160.29,214.52,160,214.59Z"/><path class="cls-10" d="M162.17,213.87a7.82,7.82,0,0,0-.53-1,4.07,4.07,0,0,0-1.41-1.37.59.59,0,0,1-.22-.71.43.43,0,0,1,.6-.27,5.16,5.16,0,0,1,1.74,1.69,7.1,7.1,0,0,1,.6,1.13A3,3,0,0,1,162.17,213.87Z"/><path class="cls-11" d="M126.19,107.27c2.12,9.8-.31,16.52-4.56,29.12-2.88,8.52-2.55,22.31-2,30.33a32.65,32.65,0,0,0,42.4,0c.51-8,.85-21.81-2-30.33-4.25-12.6-6.68-19.32-4.55-29.12l-14.61-3.36Z"/><path class="cls-12" d="M138,174.54a24.93,24.93,0,0,0,5.86.12s-.11-8.65-.25-16.27c-.11-6.3-.76-12.07-2.72-12.14-1.72-.06-2.49,5.46-2.66,12.73C138.06,163.77,137.86,169.32,138,174.54Z"/><path class="cls-10" d="M126.4,120.26a63,63,0,0,1-1.54,6.25,24.73,24.73,0,0,1,8.37,0c4.65,1.15,8.21.93,8.23-2,0-2.11-7.67-4.47-15.06-4.31Zm-1.9,7.41,2.59.22c6.4.55,12.6,4.15,11.73,6.24s-2.63,1.61-6.94.38a33,33,0,0,0-9.41-.63c.76-2.24,1.44-4.29,2-6.21Zm-2.35,7.16-.52,1.56a31.76,31.76,0,0,0-1,3.77c1.6.72,10.92,4.82,13,4.64,2.33-.19,1.88-3.35,1.35-4s-9-4.32-12.86-6Zm-1.54,5.38c1.37,1,8.54,6.12,9.29,6.57s3.3,2.58,0,3.18c-2.38.44-7.53-2.07-10.21-3.49A56,56,0,0,1,120.61,140.21Z"/><path class="cls-10" d="M161.77,145.27a43.36,43.36,0,0,0-1.82-8.88c-1.15-3.42-2.17-6.4-3-9.13l-5,.75c-6.36.94-12.32,4.91-11.33,7s2.74,1.44,7-.05S159,133.72,159,133.72s-13.71,7.05-14.2,7.7-.75,3.82,1.59,3.87,13-5.56,13-5.56-8.3,6.75-9.09,7.3-3.13,2.78.2,3.18c2.92.35,9.67-3.9,11.27-4.94Zm-5-18.52c-2.72-.33-7.84-.75-11.07.26-4.57,1.44-8.15,1.44-8.34-1.44-.17-2.38,9.62-5.73,17.82-5.19A59.19,59.19,0,0,0,156.8,126.75Z"/><path class="cls-10" d="M137.57,183.65a.49.49,0,0,1-1-.07c.14-2.09.21-4,.27-5.73,0-1.2.08-2.33.13-3.37.85-15.6,1.16-17.55,1.16-17.56a.49.49,0,1,1,1,.14s-.3,1.92-1.14,17.47c-.06,1.07-.1,2.18-.14,3.35C137.78,179.66,137.71,181.59,137.57,183.65Z"/><path class="cls-10" d="M145,183.8a.48.48,0,0,1-.47.5.48.48,0,0,1-.5-.47c-.64-20.11-1.05-23.47-1.35-25.82,0-.29-.07-.57-.11-1a.49.49,0,0,1,1-.1c0,.27.07.6.11.95C143.94,160.25,144.35,163.61,145,183.8Z"/><path class="cls-13" d="M92.73,211.12a7.9,7.9,0,0,1,.72-1.58,5.43,5.43,0,0,1,1.5-1.67.4.4,0,0,1,.61.18.6.6,0,0,1-.15.74,4.57,4.57,0,0,0-1.22,1.37,7.42,7.42,0,0,0-.78,1.88A2.79,2.79,0,0,1,92.73,211.12Z"/><path class="cls-13" d="M96.06,213.24a7.29,7.29,0,0,1,.82-1.68,5,5,0,0,1,1.74-1.68.41.41,0,0,1,.59.26.57.57,0,0,1-.22.71,4.14,4.14,0,0,0-1.4,1.37A6.55,6.55,0,0,0,97,213.4,8.38,8.38,0,0,1,96.06,213.24Z"/><path class="cls-13" d="M188.45,212.14a7.19,7.19,0,0,0-.79-2,4.46,4.46,0,0,0-1.23-1.37.6.6,0,0,1-.15-.74.41.41,0,0,1,.62-.18,5.54,5.54,0,0,1,1.49,1.67,7.22,7.22,0,0,1,.64,1.34A3.17,3.17,0,0,1,188.45,212.14Z"/><path class="cls-13" d="M185,213.83a6.82,6.82,0,0,0-.75-1.61,4.25,4.25,0,0,0-1.41-1.37.59.59,0,0,1-.22-.71.42.42,0,0,1,.6-.26,5,5,0,0,1,1.74,1.68,7.94,7.94,0,0,1,.95,2.08A8.12,8.12,0,0,1,185,213.83Z"/><path class="cls-5" d="M118.64,120.16a110.15,110.15,0,0,0-9.58,12.34s-36.76,4.36-42.57,6.91-14.87,17-1.28,24.36,42.9-17.58,42.9-17.58,4.74.15,7.3-1L118,144s8.62,5,11.92,4.43.83-2.69,0-3.18-9.52-6.73-9.52-6.73,11,4.95,13.28,4.75,1.88-3.35,1.35-4-14.65-6.81-14.65-6.81,7.21-.74,11.52.48,6.08,1.72,6.94-.38-5.33-5.69-11.73-6.24l-6.75-.57s8.24-2,12.89-.8,8.21.93,8.23-2S126.94,116.81,118.64,120.16Z"/><path class="cls-6" d="M61,145.69a.57.57,0,0,1-.78.17.55.55,0,0,1-.17-.77c5.45-8.64,16.59-8.54,16.62-8.54a.57.57,0,0,1,.57.56.58.58,0,0,1-.57.57S66.08,137.58,61,145.69Z"/><path class="cls-6" d="M108,143.48s.1,0-18,8.75l-.33.15q-4.06,2-7.74,3.35c-11.61,4.4-20,4.38-23.76-1.66v.12c.29,3.53,2.27,7,7.06,9.58,5.93,3.2,14.85.26,23-4.07a127,127,0,0,0,19.88-13.51s4.74.15,7.3-1l2.46-1.11c-2.05-1.3-2-1-4.4-.35A11.25,11.25,0,0,1,108,143.48Z"/><path class="cls-5" d="M160,119.76a110.16,110.16,0,0,1,10.34,11.72l.51,0a28.81,28.81,0,0,1,1.57,13.8l-.3-.22s-4.72.45-7.35-.54l-2.63-1s-8.29,5.57-11.62,5.17-1-2.63-.2-3.18,9.09-7.3,9.09-7.3-10.63,5.61-13,5.56-2.09-3.23-1.59-3.87,14.2-7.7,14.2-7.7-7.25-.3-11.47,1.19-6,2.09-7,.05,5-6,11.33-7l6.7-1s-8.34-1.44-12.91,0-8.15,1.44-8.34-1.44S151.49,116.93,160,119.76Z"/><path class="cls-5" d="M163.42,124.78c3.47,2.8,25.81,15.47,29.27,20.53s4.78,21.54-10.62,20.56c-8.5-.55-15.86-11.94-20.76-22C159.62,140.34,163.28,125.32,163.42,124.78Z"/><path class="cls-6" d="M189.93,143.85a.56.56,0,1,1-.89.69,39,39,0,0,0-3.74-4.08,59.93,59.93,0,0,0-4.76-4.12.55.55,0,0,1-.1-.78.56.56,0,0,1,.79-.1,59.9,59.9,0,0,1,4.85,4.19A42.49,42.49,0,0,1,189.93,143.85Z"/><path class="cls-6" d="M162.93,142.94a7.75,7.75,0,0,0-1.34.88l-.21.16,0,0c.09.19.19.39.28.59l.21.42c2.88,5.76,6.54,11.79,10.72,15.87,2.92,2.85,6.09,4.75,9.45,5,4.86.31,8.06-1.12,10.05-3.39l-1.37.18c-2.26.26-4.89-.57-7.62-2a42.66,42.66,0,0,1-5.52-3.61c-.5-.38-1-.77-1.49-1.17a110,110,0,0,1-12-11.54l-.27-.31Z"/><path class="cls-5" d="M91.81,53.89c0,13.52,11.31,27,25.27,27s25.27-13.5,25.27-27C142.35,17.13,91.81,17.13,91.81,53.89Z"/><path class="cls-6" d="M91.81,53.89A25.33,25.33,0,0,0,92.15,58c.51,1.24,1.09,2.53,1.73,3.88.56-13,1.27-15.58,1.27-15.58s6.2-.23,10.49-2.14l4.29-1.91s-1.51,3.58,3.74,3.9,14.62-6.52,14.62-6.52l4.05-.64s1.12,4.29,3.18,5.8a10.53,10.53,0,0,0,3.58,1.83l2.7,11.92.49-6.68c-.63-11.8-6.67-19.5-14.38-23.11a101,101,0,0,0-22.41.36C97.72,33.05,91.81,41.32,91.81,53.89Z"/><path class="cls-5" d="M85,49.44c3.51,0,7.14,3.56,8.12,8s-1.08,8-4.59,8-7.15-3.56-8.12-8S81.53,49.44,85,49.44Z"/><path class="cls-5" d="M149.12,49.44c-3.51,0-7.14,3.56-8.12,8s1.08,8,4.59,8,7.15-3.56,8.12-8S152.63,49.44,149.12,49.44Z"/><path class="cls-6" d="M149.19,53.59c-1.68,0-3.42,1.7-3.88,3.8s.51,3.8,2.19,3.8,3.42-1.7,3.88-3.8S150.87,53.59,149.19,53.59Z"/><path class="cls-6" d="M85.16,53.59c1.68,0,3.42,1.7,3.89,3.8s-.52,3.8-2.2,3.8-3.42-1.7-3.88-3.8S83.49,53.59,85.16,53.59Z"/><path class="cls-14" d="M83.38,56a.56.56,0,1,1-1.1-.18,3.35,3.35,0,0,1,1.51-2.59A2.56,2.56,0,0,1,85.58,53a4.9,4.9,0,0,1,1.78.79,7,7,0,0,1,3,4.77.56.56,0,0,1-.51.61.57.57,0,0,1-.34-.08c-.12-.06-1.39-.73-2-.05s.09,1.71.09,1.71a.56.56,0,0,1-.13.78.57.57,0,0,1-.79-.13s-1.31-1.76,0-3.14a2.36,2.36,0,0,1,2.38-.53,6.23,6.23,0,0,0-2.34-3,3.79,3.79,0,0,0-1.35-.62,1.56,1.56,0,0,0-1,.12A2.31,2.31,0,0,0,83.38,56Z"/><path class="cls-14" d="M151.88,55.79a.56.56,0,0,1-1.1.18,2.31,2.31,0,0,0-.95-1.78,1.56,1.56,0,0,0-1-.12,3.79,3.79,0,0,0-1.35.62,6.23,6.23,0,0,0-2.34,3,2.36,2.36,0,0,1,2.38.53c1.33,1.38,0,3.14,0,3.14a.57.57,0,0,1-.79.13.56.56,0,0,1-.13-.78s.76-1,.09-1.71-1.93,0-2,.05a.57.57,0,0,1-.34.08.56.56,0,0,1-.51-.61,7,7,0,0,1,3-4.77,4.94,4.94,0,0,1,1.77-.79,2.58,2.58,0,0,1,1.8.23A3.35,3.35,0,0,1,151.88,55.79Z"/><path class="cls-3" d="M92.92,58.78c1.33-5.33,0-13.53,0-13.53,12.22-1.12,21.23-12.8,21.86-15.82l.41-2.12s-16.71-10.16-24.65-6S81,42.5,92.92,58.78Z"/><path class="cls-3" d="M140.92,58.78c-1.33-5.33,0-13.53,0-13.53-5-2.54-6.81-6.08-9.54-11H116.92l1.73-7s16.71-10.16,24.65-6S152.84,42.5,140.92,58.78Z"/><path class="cls-3" d="M100.63,21c-1.59-6.12-5.72-9.14-7-7.94s2.54,4.61,2.54,4.61-4.93-1.91-6.52,0S99.83,22.94,100.63,21Z"/><path class="cls-3" d="M100.23,37.88c5.88-4.77,13.67-4.93,11-3.5s-6.16,6-2.82,6.32c2,.21,4.91-1.68,7-3.26v0c-2.26,2-5.09,5-3.83,6.35,2.65,3,14-5.78,16-6.44,0,0,3.18,1.75,8.26-2.46s-.71-6.91-1.82-7S102.54,25.72,100.23,37.88Z"/><path class="cls-3" d="M134.12,5.33C148.42,9,136,14.87,136,14.87s11.12,3.65,11.6,11.92-38.15,4.45-38.15,4.45S96.93,28.06,98.2,20.11c3.18-11.76,21.61-18.44,35.92-14.78"/><path class="cls-3" d="M93.07,45.86a160.47,160.47,0,0,1,1.94,21c.13,11.79,6.4,13.06,4.89,13-25.26-1-11.26-27.75-12.61-32.91-.42-1.57-3-14.59-.37-13.13C89.22,35.08,93.07,45.86,93.07,45.86Z"/><path class="cls-3" d="M140.74,45.86a158.76,158.76,0,0,0-1.94,21c-.13,11.79-6.41,13.06-4.89,13,25.25-1,11.26-27.75,12.61-32.91.41-1.57,3-14.59.37-13.13C144.59,35.08,140.74,45.86,140.74,45.86Z"/><path class="cls-15" d="M101.72,13.77a17.8,17.8,0,0,0-2.38,3.42c1.46,2.89,13.25,5.59,25.88,6.73l1.58.13a114.76,114.76,0,0,0,17.91.16c.61-.05,1.2-.11,1.78-.18L147,24c-2-5.27-8.4-8.11-10.39-8.88-1.84.53-15.78,4.23-34.21-1.1C102.17,13.92,101.94,13.85,101.72,13.77Z"/><path class="cls-6" d="M113.42,58.66h8S117.78,64.86,113.42,58.66Z"/><path class="cls-8" d="M108.73,63.26h17.5s-1.41,8.27-9.34,8C114.32,71.23,109.51,69.43,108.73,63.26Z"/><path class="cls-14" d="M104,45.45a.94.94,0,1,1-1.71-.76A5.52,5.52,0,0,1,103.39,43a4.36,4.36,0,0,1,2.44-1.25,4.59,4.59,0,0,1,2.6.36A5.2,5.2,0,0,1,110,43.23a.93.93,0,1,1-1.32,1.32,3.56,3.56,0,0,0-1-.72,2.83,2.83,0,0,0-1.56-.22,2.53,2.53,0,0,0-1.4.72A3.78,3.78,0,0,0,104,45.45Z"/><path class="cls-14" d="M132.54,44.69a.94.94,0,1,1-1.71.76,3.76,3.76,0,0,0-.74-1.12,2.59,2.59,0,0,0-1.41-.72,2.79,2.79,0,0,0-1.55.22,3.56,3.56,0,0,0-1,.72.94.94,0,0,1-1.33-1.32,5.36,5.36,0,0,1,1.6-1.11,4.58,4.58,0,0,1,2.6-.36A4.39,4.39,0,0,1,131.41,43,5.5,5.5,0,0,1,132.54,44.69Z"/><path class="cls-6" d="M101,62.75c2.93,0,5.32-1.57,5.32-3.49s-2.39-3.5-5.32-3.5-5.33,1.57-5.33,3.5S98.1,62.75,101,62.75Z"/><path class="cls-6" d="M133.13,62.75c2.94,0,5.33-1.57,5.33-3.49s-2.39-3.5-5.33-3.5-5.32,1.57-5.32,3.5S130.2,62.75,133.13,62.75Z"/><path class="cls-6" d="M113.42,72.81h8S117.78,79,113.42,72.81Z"/><path class="cls-4" d="M107.27,52.62A2.62,2.62,0,1,0,104.64,50,2.63,2.63,0,0,0,107.27,52.62Z"/><path class="cls-4" d="M127.29,52.62A2.62,2.62,0,1,0,124.67,50,2.62,2.62,0,0,0,127.29,52.62Z"/><path class="cls-8" d="M109,49.2a.91.91,0,1,0-.91-.91A.92.92,0,0,0,109,49.2Z"/><path class="cls-8" d="M129.24,49a.91.91,0,1,0-.92-.91A.91.91,0,0,0,129.24,49Z"/><path class="cls-8" d="M119,54c.5,0,1,.72,1.19,1.61s-.13,1.61-.64,1.61-1-.72-1.19-1.61S118.44,54,119,54Z"/><path class="cls-16" d="M93,45.61c0-.09-.08-.2-.13-.33Z"/><path class="cls-16" d="M92.85,45.28c-.43-1.18-1.48-3.92-2.66-6.45C91.32,41.26,92.35,43.92,92.85,45.28Z"/><path class="cls-16" d="M90.19,38.83c-1.11-2.36-2.32-4.5-3.27-5C87.87,34.33,89.09,36.48,90.19,38.83Z"/><path class="cls-16" d="M86.92,33.8c-.43-.24-.72-.09-.9.33C86.2,33.71,86.49,33.56,86.92,33.8Z"/><path class="cls-16" d="M86,34.13a11.91,11.91,0,0,0-.11,4.65c.06.58.14,1.17.22,1.77-.08-.59-.16-1.18-.22-1.76A11.79,11.79,0,0,1,86,34.13Z"/><path class="cls-16" d="M86.13,40.55c.41,3,1,5.86,1.16,6.38C87.11,46.25,86.52,43.42,86.13,40.55Z"/><path class="cls-16" d="M87.29,46.93Z"/><path class="cls-16" d="M127.68,27.19a.56.56,0,0,1,1,.49A28.25,28.25,0,0,1,124,34.31a27.46,27.46,0,0,1-6.36,5.18.57.57,0,0,1-.53-1,26,26,0,0,0,6.07-5A27,27,0,0,0,127.68,27.19Z"/><path class="cls-16" d="M121.79,26.16a.56.56,0,0,1,.78-.13.57.57,0,0,1,.13.79c-4.31,6-12.26,11.14-12.29,11.15a.55.55,0,0,1-.77-.16.56.56,0,0,1,.16-.78S117.6,32,121.79,26.16Z"/><path class="cls-16" d="M115,25.81a.56.56,0,0,1,.79,0,.58.58,0,0,1,0,.8,50.72,50.72,0,0,1-10.54,7.6A35,35,0,0,1,94.4,38.05a.56.56,0,0,1-.18-1.1,34,34,0,0,0,10.52-3.71A49.23,49.23,0,0,0,115,25.81Z"/><path class="cls-16" d="M136,28.41a.55.55,0,0,1,.39-.69.56.56,0,0,1,.69.39c2.22,8.14,7.36,10.87,7.38,10.88a.57.57,0,0,1,.23.76.58.58,0,0,1-.77.24S138.33,37,136,28.41Z"/><path class="cls-16" d="M104.65,26.18a.58.58,0,0,1,.8,0,.57.57,0,0,1,0,.8,23.7,23.7,0,0,1-4,3.25,31.54,31.54,0,0,1-5,2.64.57.57,0,0,1-.74-.31.56.56,0,0,1,.31-.73,29.6,29.6,0,0,0,4.79-2.54A22.07,22.07,0,0,0,104.65,26.18Z"/><path class="cls-16" d="M131.62,16.69a.57.57,0,0,1-.65-.47.56.56,0,0,1,.46-.65,25.78,25.78,0,0,0,3-.68,11.09,11.09,0,0,0,2.11-.8.56.56,0,0,1,.76.22.57.57,0,0,1-.22.77,13.1,13.1,0,0,1-2.33.9A32.29,32.29,0,0,1,131.62,16.69Z"/><path class="cls-11" d="M122.11,91.21l2.27,21.24s6.92,8.86,11.24,11.37c3.71,2.15,5.94,2,6.5,1.94s2.79,0,6.37-2.31c4.17-2.76,10.57-12,10.57-12l1-21.33C161.12,68.82,119.78,69.32,122.11,91.21Z"/><path class="cls-17" d="M135.45,111.26h12.12v11.92a6.08,6.08,0,0,1-6.06,6.06h0a6.08,6.08,0,0,1-6.06-6.06Z"/><path class="cls-10" d="M123.37,83.27c-1.56-3-3.6-.53-7.2,4.6s-13.34,13.33-7.79,20,4.47,11.64,4.85,16.12,8.76,1.56,10.91-5S123.37,83.27,123.37,83.27Z"/><path class="cls-10" d="M158.94,83.27c1.56-3,3.6-.53,7.2,4.6s13.34,13.33,7.79,20-4.47,11.64-4.85,16.12-8.76,1.56-10.91-5S158.94,83.27,158.94,83.27Z"/><path class="cls-18" d="M121,117.82c-1.64,5-4.8,6.58-7.49,7.11,1.48,3,8.68,0,10.65-6a23.88,23.88,0,0,0,.73-5.84c.4-10.2-1.31-27.87-1.48-29.65l0-.15C122.7,82,123.07,111.39,121,117.82Z"/><path class="cls-18" d="M161.33,117.82c1.64,5,4.8,6.58,7.49,7.11-1.48,3-8.68,0-10.65-6a23.88,23.88,0,0,1-.73-5.84c-.4-10.2,1.31-27.87,1.48-29.65,0-.1,0-.15,0-.15C159.72,81.77,159.34,111.71,161.33,117.82Z"/><path class="cls-4" d="M140.88,118.23a.58.58,0,0,1,.57-.57.57.57,0,0,1,.56.57v7.13a.56.56,0,0,1-.56.56.57.57,0,0,1-.57-.56Z"/><path class="cls-10" d="M129.06,114.33a6.44,6.44,0,0,0,7.76,5.69c4.56-.91,4.69-2.34,4.69-2.34s.13,1.43,4.69,2.34a6.42,6.42,0,0,0,7.76-5.77c.16-3.86-4.31-5-4.31-7.9,0-16-16.28-16-16.28,0C133.37,109.29,128.85,110.42,129.06,114.33Z"/><path class="cls-4" d="M131.74,94.2a2.54,2.54,0,1,1-2.54,2.54A2.54,2.54,0,0,1,131.74,94.2Z"/><path class="cls-4" d="M151.28,94.2a2.54,2.54,0,1,1-2.54,2.54A2.54,2.54,0,0,1,151.28,94.2Z"/><path class="cls-4" d="M147.29,108.49c0,7.51-11.56,7.51-11.56,0C135.73,104.52,147.29,104.52,147.29,108.49Z"/><path class="cls-8" d="M141.51,106.3c1.4,0,2.54.41,2.54.92s-1.14.93-2.54.93-2.54-.42-2.54-.93S140.11,106.3,141.51,106.3Z"/><path class="cls-12" d="M135.05,87.74c1.95,3.07-4.41,4.49-5.17,3.3S133.1,84.68,135.05,87.74Z"/><path class="cls-12" d="M148.11,88.19c-1.39,3.36,5.13,3.65,5.67,2.34S149.49,84.84,148.11,88.19Z"/><path class="cls-4" d="M140.81,111.9a.56.56,0,1,1,1.11,0v.39c0,1.39.07,5.54-.28,6.13a3.92,3.92,0,0,1-2,1.51,6,6,0,0,1-2.26.43A4.55,4.55,0,0,1,133,117.3a.57.57,0,0,1,.31-.73.56.56,0,0,1,.72.31,3.62,3.62,0,0,0,1.55,1.89,3.77,3.77,0,0,0,1.84.48,5.17,5.17,0,0,0,1.86-.36,2.91,2.91,0,0,0,1.43-1,43.88,43.88,0,0,0,.12-5.56Z"/><path class="cls-4" d="M140.85,111.9a.55.55,0,0,1,.55-.56.56.56,0,0,1,.56.56c0,.13,0,.11,0,.4a43.56,43.56,0,0,0,.13,5.56,2.92,2.92,0,0,0,1.42,1,5.17,5.17,0,0,0,1.86.36,3.81,3.81,0,0,0,1.85-.48,3.56,3.56,0,0,0,1.54-1.89.56.56,0,0,1,.72-.31.56.56,0,0,1,.31.73,4.55,4.55,0,0,1-4.41,3.06,6,6,0,0,1-2.27-.43,4,4,0,0,1-2-1.51c-.34-.59-.29-4.74-.28-6.13Z"/><path class="cls-8" d="M152.4,95.86a.74.74,0,1,0-.73-.74A.74.74,0,0,0,152.4,95.86Z"/><path class="cls-8" d="M132.93,95.86a.74.74,0,1,0-.73-.74A.74.74,0,0,0,132.93,95.86Z"/><path class="cls-19" d="M44.85,0V169.5h30V168h2.59l0,0A70.92,70.92,0,0,0,166,168l0,0h18.77v1.52h19.34V0"/><path class="cls-20" d="M0,174.79l15.77,22c7.7-6,15.48-12.62,26.16-19.52L26.65,155.64l-9.43,16.84L0,174.79"/><path class="cls-20" d="M270.61,176.37l-17.36,20.72c-7.23-6.58-14.49-13.74-24.63-21.42l16.85-20.37,8.14,17.49Z"/><path class="cls-20" d="M121,247.25c-11.14.3-13.16-.37-16.41,2.44-2.11,1.82-2.77,4.63-3.11,6.88-.55,3.7,1.36,6.71,10.63,7.47,18.51,1.53,47.77.5,60.12-.31,5-.33,6.68-4.53,7-8.86.3-3.57.47-7.4-6.22-7.62C153.13,246.59,121,247.25,121,247.25Z"/><path class="cls-21" d="M118.25,261.67a9.52,9.52,0,0,1-1-.06,5.3,5.3,0,0,1-1.08-.21,2.49,2.49,0,0,1-.86-.44,1,1,0,0,1-.34-.74.85.85,0,0,1,.3-.71,1.63,1.63,0,0,1,1-.23,5.29,5.29,0,0,1,1.06.12,5.68,5.68,0,0,0,1.13.13,2.25,2.25,0,0,0,1.18-.25.8.8,0,0,0,.23-1.15,1.39,1.39,0,0,0-.57-.42,8.83,8.83,0,0,0-1.28-.45,7.44,7.44,0,0,1-1.59-.59,2.3,2.3,0,0,1-.89-.78,2.06,2.06,0,0,1-.27-1.08,3,3,0,0,1,.27-1.32,2.82,2.82,0,0,1,.72-1,3.7,3.7,0,0,1,1-.63,6.17,6.17,0,0,1,1.16-.35,6.43,6.43,0,0,1,1.12-.11,4.4,4.4,0,0,1,2,.38,1.11,1.11,0,0,1,.75,1,1,1,0,0,1-.28.72,1.23,1.23,0,0,1-.87.28,3.71,3.71,0,0,1-.59-.07l-.76-.14a5.17,5.17,0,0,0-.91-.07,2.66,2.66,0,0,0-1.3.26.9.9,0,0,0-.46.85.81.81,0,0,0,.13.45,1.52,1.52,0,0,0,.56.43,9,9,0,0,0,1.31.51,7.31,7.31,0,0,1,1.72.73,2.4,2.4,0,0,1,.88.89,2.29,2.29,0,0,1,.27,1.12,2.53,2.53,0,0,1-.47,1.51,3,3,0,0,1-1.28,1A4.77,4.77,0,0,1,118.25,261.67Z"/><path class="cls-21" d="M127.28,261.74a5.46,5.46,0,0,1-2.45-.46,2.73,2.73,0,0,1-1.31-1.31,4.78,4.78,0,0,1-.4-2.05,5.32,5.32,0,0,1,.56-2.56,3.94,3.94,0,0,1,1.55-1.63,4.46,4.46,0,0,1,2.24-.56,3,3,0,0,1,2.17.68,2.41,2.41,0,0,1,.69,1.79,2.54,2.54,0,0,1-.46,1.53,2.92,2.92,0,0,1-1.28,1,4.78,4.78,0,0,1-1.88.34,4.3,4.3,0,0,1-1.14-.15,4.11,4.11,0,0,1-1-.41l.33-.61a4.87,4.87,0,0,0,0,.66,1.55,1.55,0,0,0,.61,1.39,3,3,0,0,0,1.73.42,5.2,5.2,0,0,0,1.39-.15,8.32,8.32,0,0,0,.89-.3,2,2,0,0,1,.7-.14.6.6,0,0,1,.35.1.79.79,0,0,1,.27.3,1,1,0,0,1,.1.47,1.08,1.08,0,0,1-.41.79,3.21,3.21,0,0,1-1.23.63A7.05,7.05,0,0,1,127.28,261.74Zm-.8-4.52a2.65,2.65,0,0,0,1.57-.42,1.2,1.2,0,0,0,.6-1,1.06,1.06,0,0,0-.33-.8,1.43,1.43,0,0,0-1-.31,2.58,2.58,0,0,0-1.17.25,2.08,2.08,0,0,0-.81.62,1.41,1.41,0,0,0-.29.85.68.68,0,0,0,.38.61A2.09,2.09,0,0,0,126.48,257.22Z"/><path class="cls-21" d="M132.12,255.39a5.2,5.2,0,0,1,.25-1.91c.16-.39.4-.59.7-.59a.66.66,0,0,1,.57.3,1.93,1.93,0,0,1,.3.73,3.71,3.71,0,0,1,.1.88l-.07,0a3.4,3.4,0,0,1,.72-1.29,1.59,1.59,0,0,1,1.19-.53,1.29,1.29,0,0,1,1.2.67,3.24,3.24,0,0,1,.39,1.66,4,4,0,0,1-.31,1.85.91.91,0,0,1-.81.53.59.59,0,0,1-.55-.3,2.12,2.12,0,0,1-.12-1.08,2.55,2.55,0,0,0-.09-1.14.52.52,0,0,0-.49-.31c-.27,0-.48.16-.65.5a2.74,2.74,0,0,0-.26,1.24,4.41,4.41,0,0,0,.07.73c0,.3.1.62.15,1s.11.69.15,1a6.41,6.41,0,0,1,.07.94,2,2,0,0,1-.23,1.09.78.78,0,0,1-.67.33.9.9,0,0,1-.74-.31,2.14,2.14,0,0,1-.4-1c-.08-.43-.15-.93-.22-1.51s-.14-1.17-.18-1.78S132.12,255.88,132.12,255.39Z"/><path class="cls-21" d="M139.1,252.93a.88.88,0,0,1,.8.42,4.08,4.08,0,0,1,.44,1.27c.1.49.24,1,.43,1.69s.39,1.3.63,2,.47,1.32.72,1.94h.06c.22-.57.43-1.18.61-1.83s.35-1.28.49-1.9a16.63,16.63,0,0,0,.27-1.66,3.39,3.39,0,0,1,.29-1.28.69.69,0,0,1,.66-.38.89.89,0,0,1,.76.38,2.06,2.06,0,0,1,.28,1.21,7.62,7.62,0,0,1-.15,1.46,11.93,11.93,0,0,1-.38,1.54c-.17.5-.35,1-.55,1.41a12.51,12.51,0,0,1-.72,1.34,3.21,3.21,0,0,1-.79.9,1.77,1.77,0,0,1-1.06.31,1.55,1.55,0,0,1-1.14-.47,6.93,6.93,0,0,1-1-1.48,14,14,0,0,1-.81-1.81,13.51,13.51,0,0,1-.53-1.84,8.63,8.63,0,0,1-.18-1.65,2.5,2.5,0,0,1,.21-1.16A.73.73,0,0,1,139.1,252.93Z"/><path class="cls-21" d="M148,254.11c.29,0,.52.27.69.83a9.75,9.75,0,0,1,.26,2.64,11.47,11.47,0,0,1-.32,3.2c-.21.66-.53,1-1,1s-.57-.25-.73-.73a9.25,9.25,0,0,1-.23-2.54,11.32,11.32,0,0,1,.36-3.31C147.34,254.47,147.65,254.11,148,254.11Zm-.09-3.09a1,1,0,0,1,.8.31,1.1,1.1,0,0,1,.24.7,1,1,0,0,1-.3.77,1.18,1.18,0,0,1-.83.27,1,1,0,0,1-1-1,1,1,0,0,1,.31-.78A1.26,1.26,0,0,1,147.94,251Z"/><path class="cls-21" d="M154.07,261.78a3.54,3.54,0,0,1-2.8-1,4,4,0,0,1-.89-2.76,5.3,5.3,0,0,1,.53-2.43,4,4,0,0,1,1.53-1.66,4.6,4.6,0,0,1,2.4-.6,3.64,3.64,0,0,1,1.91.41,1.2,1.2,0,0,1,.66,1,.81.81,0,0,1-.24.62,1,1,0,0,1-.71.23,1.64,1.64,0,0,1-.53-.09l-.59-.16a2.86,2.86,0,0,0-.76-.08,2.26,2.26,0,0,0-1.72.6,2.46,2.46,0,0,0-.58,1.76,2,2,0,0,0,.56,1.58,2.17,2.17,0,0,0,1.5.49,3,3,0,0,0,.83-.1l.66-.21a2,2,0,0,1,.63-.1.71.71,0,0,1,.73.77,1.18,1.18,0,0,1-.35.82,2.33,2.33,0,0,1-1,.63A5.37,5.37,0,0,1,154.07,261.78Z"/><path class="cls-21" d="M162.19,261.74a5.41,5.41,0,0,1-2.44-.46,2.75,2.75,0,0,1-1.32-1.31,4.93,4.93,0,0,1-.4-2.05,5.44,5.44,0,0,1,.56-2.56,4,4,0,0,1,1.55-1.63,4.52,4.52,0,0,1,2.25-.56,3,3,0,0,1,2.17.68,2.41,2.41,0,0,1,.69,1.79,2.61,2.61,0,0,1-.46,1.53,3,3,0,0,1-1.28,1,4.81,4.81,0,0,1-1.88.34,4.37,4.37,0,0,1-1.15-.15,4.28,4.28,0,0,1-1-.41l.34-.61a4.87,4.87,0,0,0,0,.66,1.57,1.57,0,0,0,.6,1.39,3,3,0,0,0,1.73.42,5.28,5.28,0,0,0,1.4-.15,8.07,8.07,0,0,0,.88-.3,2,2,0,0,1,.71-.14.62.62,0,0,1,.35.1.86.86,0,0,1,.26.3,1,1,0,0,1,.11.47,1.06,1.06,0,0,1-.42.79,3.16,3.16,0,0,1-1.22.63A7.08,7.08,0,0,1,162.19,261.74Zm-.8-4.52a2.69,2.69,0,0,0,1.58-.42,1.21,1.21,0,0,0,.59-1,1.09,1.09,0,0,0-.32-.8,1.48,1.48,0,0,0-1-.31,2.64,2.64,0,0,0-1.17.25,2.12,2.12,0,0,0-.8.62,1.35,1.35,0,0,0-.29.85.67.67,0,0,0,.37.61A2.12,2.12,0,0,0,161.39,257.22Z"/><text class="cls-22" transform="translate(29.23 203.63) rotate(34.36) scale(1.18 1)">A</text><text class="cls-22" transform="translate(48.91 216.69) rotate(27.97) scale(1.18 1)">r</text><text class="cls-22" transform="matrix(1.1, 0.44, -0.37, 0.93, 62.47, 223.97)">y</text><text class="cls-22" transform="translate(82.3 231.71) rotate(15.62) scale(1.18 1)">s</text><text class="cls-22" transform="translate(97.93 235.92) rotate(11.27) scale(1.18 1)"> </text><text class="cls-22" transform="translate(108.41 238.24) rotate(5.76) scale(1.18 1)">A</text><text class="cls-22" transform="translate(132.2 240.47) rotate(-1.65) scale(1.18 1)">n</text><text class="cls-22" transform="translate(154.16 239.53) rotate(-7.05) scale(1.18 1)">i</text><text class="cls-22" transform="translate(166.44 238.58) rotate(-14.66) scale(1.18 1)">m</text><text class="cls-22" transform="translate(199.18 229.24) rotate(-25.73) scale(1.18 1)">a</text><text class="cls-22" transform="translate(218.44 219.43) rotate(-34.77) scale(1.18 1)">l</text><text class="cls-22" transform="matrix(0.81, -0.87, 0.73, 0.68, 229.68, 211.66)">s</text></g></g></svg>